<?xml version="1.0" encoding="UTF-8"?>
<svg id="Layer_2" data-name="Layer 2" xmlns="http://www.w3.org/2000/svg" viewBox="0 0 12 12">
  <defs>
    <style>
      .cls-1 {
        fill: #151515;
        stroke-width: 0px;
      }
    </style>
  </defs>
  <g id="Layer_3" data-name="Layer 3">
    <path class="cls-1" d="M11.6.4c-.54-.54-1.4-.54-1.94,0l-3.66,3.66L2.34.4C1.8-.13.94-.13.4.4s-.54,1.4,0,1.94l3.66,3.66L.4,9.66c-.54.54-.54,1.4,0,1.94s1.4.54,1.94,0l3.66-3.66,3.66,3.66c.54.54,1.4.54,1.94,0,.54-.54.54-1.4,0-1.94l-3.66-3.66,3.66-3.66c.54-.54.54-1.4,0-1.94Z"/>
  </g>
</svg>