<?xml version="1.0" encoding="UTF-8"?>
<svg id="Layer_2" data-name="Layer 2" xmlns="http://www.w3.org/2000/svg" viewBox="0 0 8 8">
  <defs>
    <style>
      .cls-1 {
        fill: #000;
        stroke-width: 0px;
      }
    </style>
  </defs>
  <g id="Layer_2-2" data-name="Layer 2">
    <g>
      <path class="cls-1" d="M7.09,0c-.36,0-.66.26-.75.62l-.21.91H.77c-.24,0-.46.11-.6.31-.15.2-.2.45-.14.69l.63,2.73c.08.36.39.62.75.62h3.44c.36,0,.66-.25.75-.62l.22-.95h0s0-.02,0-.02l.64-2.77h0l.19-.84c.05-.23.24-.38.46-.38h.91v-.31h-.91ZM5.3,5.19c-.05.22-.24.38-.46.38H1.4c-.22,0-.41-.16-.46-.38L.31,2.46c-.03-.15,0-.31.09-.43.09-.12.23-.19.37-.19h5.3l-.39,1.71H1.82v.31h3.78l-.09.38h0l-.22.95Z"/>
      <path class="cls-1" d="M5.08,6.29c-.45,0-.81.38-.81.85s.36.85.81.85.81-.38.81-.85-.36-.85-.81-.85ZM5.08,7.69c-.28,0-.52-.24-.52-.54s.23-.54.52-.54.52.24.52.54-.23.54-.52.54Z"/>
      <path class="cls-1" d="M1.16,6.29c-.45,0-.81.38-.81.85s.36.85.81.85.81-.38.81-.85-.36-.85-.81-.85ZM1.16,7.69c-.28,0-.52-.24-.52-.54s.23-.54.52-.54.52.24.52.54-.23.54-.52.54Z"/>
    </g>
  </g>
</svg>